<svg id="Layer_1" data-name="Layer 1" xmlns="http://www.w3.org/2000/svg" viewBox="0 0 609.33 114.1"><defs><style>.cls-1{fill:#fff;}.cls-2{fill:#0caeb1;}.cls-3{fill:#058984;}.cls-4{fill:#ef5f54;}.cls-5{fill:#fd9f82;}.cls-6{fill:#617dc6;}.cls-7{fill:#1a5f78;}.cls-8{fill:#af385c;}.cls-9{fill:#233560;}</style></defs><title>eharmony-white-logo-color-heart</title><g id="_Group_" data-name="&lt;Group&gt;"><path id="_Compound_Path_" data-name="&lt;Compound Path&gt;" class="cls-1" d="M226,58.44V85.67A3.07,3.07,0,0,1,222.64,89H220.4A3.07,3.07,0,0,1,217,85.67V61c0-14.12-3.14-21.85-12-21.85-8.4,0-20.5,7.06-20.5,20.06V85.67A3.07,3.07,0,0,1,181.18,89h-2.24a3.07,3.07,0,0,1-3.36-3.36V7.79A3.66,3.66,0,0,1,178.26,4l2.47-.78c2.47-.78,3.81.34,3.81,2.69v34.5c5.27-6.39,12.89-8.5,21.63-8.5C220.28,31.89,226,42.87,226,58.44Z" transform="translate(-5.34 -2.95)"/><path id="_Compound_Path_2" data-name="&lt;Compound Path&gt;" class="cls-1" d="M156.63,79.28c2.58-1.46,3.14-1.12,4.71.45l.11.11c1.68,1.68,1,3.48-.34,4.71-3,2.8-11.54,5.6-19.61,5.6-15.8,0-28-10.76-28-28.91,0-17.14,10.87-29.36,26.78-29.36,16.92,0,25.66,13.78,25.66,26.67,0,2.91-.45,4.15-3.25,4.15H122.45c.79,15.13,9.41,20.84,20.17,20.84C148.9,83.54,152.6,81.64,156.63,79.28Zm-34-22.75H157c-1.12-10.2-5-17.93-16.25-17.93C130.63,38.61,124.25,45,122.68,56.54Z" transform="translate(-5.34 -2.95)"/><path id="_Compound_Path_3" data-name="&lt;Compound Path&gt;" class="cls-1" d="M284.05,33h2.24a3.07,3.07,0,0,1,3.36,3.36v49.3c0,2.13-.7,3.25-2.38,3.25-.78,0-1.65-.12-2.89-2.24l-2.91-5A25.46,25.46,0,0,1,262,90.15c-16,0-27.23-12.44-27.23-29.13s11-29.13,27.12-29.13c7.73,0,14.12,1.33,18.83,7.15V36.37A3.07,3.07,0,0,1,284.05,33Zm-3,28.13c0-17.48-10.09-21.74-18.15-21.74-11.32,0-19.16,8.29-19.16,21.63S251.56,82.64,263,82.64C271.17,82.64,281,78.39,281,61.13Z" transform="translate(-5.34 -2.95)"/><path id="_Compound_Path_4" data-name="&lt;Compound Path&gt;" class="cls-1" d="M339.07,35.36c2.13,1.79,1.68,3.36.11,4.82l-1.34,1.23c-1.79,1.68-3.25,1.12-4.82.11a13.63,13.63,0,0,0-7.4-2.13c-8,0-14.23,5.94-14.23,16.14l-.23,30.14A3,3,0,0,1,307.81,89h-2.24a3.07,3.07,0,0,1-3.36-3.36V36.37A3.07,3.07,0,0,1,305.57,33h2.24a3.07,3.07,0,0,1,3.36,3.36v3.7c4.37-4.93,10.2-8.07,16.47-8.07C331.45,32,336.27,33.12,339.07,35.36Z" transform="translate(-5.34 -2.95)"/><path id="_Compound_Path_5" data-name="&lt;Compound Path&gt;" class="cls-1" d="M431.21,58.33V85.67A3.07,3.07,0,0,1,427.85,89h-2.24a3.07,3.07,0,0,1-3.36-3.36V59.45c0-13.11-3.7-20.28-11.77-20.28s-16.14,6.72-16.25,20.06V85.67A3.07,3.07,0,0,1,390.87,89h-2.24a3.07,3.07,0,0,1-3.36-3.36V59.45c0-13.11-3.7-20.28-11.77-20.28s-16.14,6.72-16.25,20.06V85.67A3.07,3.07,0,0,1,353.89,89h-2.24a3.07,3.07,0,0,1-3.36-3.36V36.37A3.07,3.07,0,0,1,351.65,33h2.24a3.07,3.07,0,0,1,3.36,3.36v4.26c4.48-5.49,9.41-9,16.81-9,8.29,0,15,4.26,17.93,12.1,5.27-8.07,11.21-12.1,19.5-12.1C425,31.66,431.21,42.64,431.21,58.33Z" transform="translate(-5.34 -2.95)"/><path id="_Compound_Path_6" data-name="&lt;Compound Path&gt;" class="cls-1" d="M441.1,61.13C441.1,42.87,453.87,32,468.55,32S496,42.87,496,61.13s-12.77,29.13-27.45,29.13S441.1,79.4,441.1,61.13Zm45.72,0c0-14.23-8.85-21.85-18.26-21.85s-18.38,7.51-18.38,22S459.14,83,468.44,83,486.82,75.7,486.82,61.13Z" transform="translate(-5.34 -2.95)"/><path id="_Compound_Path_7" data-name="&lt;Compound Path&gt;" class="cls-1" d="M556.35,58.33V85.67A3.07,3.07,0,0,1,553,89h-2.24a3.07,3.07,0,0,1-3.36-3.36V59.45c0-12.44-2.58-20.28-12.1-20.28-8.74,0-19.94,6.61-20.39,21.07V85.67A3.07,3.07,0,0,1,511.53,89h-2.24a3.07,3.07,0,0,1-3.36-3.36V36.37A3.07,3.07,0,0,1,509.29,33h2.24a3.07,3.07,0,0,1,3.36,3.36v4.57c5.72-7.06,12.89-9.28,21.29-9.28C550.52,31.66,556.35,42.76,556.35,58.33Z" transform="translate(-5.34 -2.95)"/><path id="_Compound_Path_8" data-name="&lt;Compound Path&gt;" class="cls-1" d="M609.81,31.42h1.91c2.47,0,3.59,1.57,2.58,3.92L580,114.47a4,4,0,0,1-3.92,2.58h-1.91c-2.47,0-3.58-1.57-2.58-3.92l12.35-27L564.21,35.34c-.9-2.35.22-3.92,2.69-3.92h2.58a3.75,3.75,0,0,1,3.92,2.69l14.9,41.57L605.89,34A4,4,0,0,1,609.81,31.42Z" transform="translate(-5.34 -2.95)"/></g><g id="_Group_2" data-name="&lt;Group&gt;"><path id="_Path_" data-name="&lt;Path&gt;" class="cls-2" d="M52.66,19.89a27.72,27.72,0,0,0-39.2,0l19.6,19.6Z" transform="translate(-5.34 -2.95)"/><path id="_Path_2" data-name="&lt;Path&gt;" class="cls-3" d="M13.46,59.09l19.6-19.6-19.6-19.6A27.72,27.72,0,0,0,13.46,59.09Z" transform="translate(-5.34 -2.95)"/><path id="_Path_3" data-name="&lt;Path&gt;" class="cls-4" d="M91.86,59.09a27.72,27.72,0,0,0,0-39.2l-19.6,19.6Z" transform="translate(-5.34 -2.95)"/><path id="_Path_4" data-name="&lt;Path&gt;" class="cls-5" d="M52.66,19.89l19.6,19.6,19.6-19.6A27.72,27.72,0,0,0,52.66,19.89Z" transform="translate(-5.34 -2.95)"/><polygon id="_Path_5" data-name="&lt;Path&gt;" class="cls-6" points="66.93 36.54 47.32 16.94 47.32 16.94 27.72 36.54 47.32 56.14 66.93 36.54"/><polygon id="_Path_6" data-name="&lt;Path&gt;" class="cls-7" points="27.72 36.54 8.12 56.14 8.12 56.14 27.72 75.75 47.32 56.14 27.72 36.54"/><rect id="_Path_7" data-name="&lt;Path&gt;" class="cls-8" x="58.4" y="45.23" width="27.72" height="27.72" transform="translate(-25.96 65.45) rotate(-45)"/><rect id="_Path_8" data-name="&lt;Path&gt;" class="cls-9" x="38.8" y="64.84" width="27.72" height="27.72" transform="translate(-45.56 57.34) rotate(-45)"/></g></svg>