<svg xmlns="http://www.w3.org/2000/svg" width="160" height="66" viewBox="0 0 160 66">
    <g fill="none" fill-rule="evenodd">
        <path fill="#0CAEB1" d="M79.97 2.92a8.82 8.82 0 0 0-12.473 0l6.235 6.238L79.97 2.92z"/>
        <path fill="#058984" d="M67.51 15.392l6.235-6.234-6.234-6.238a8.82 8.82 0 0 0 0 12.472z"/>
        <path fill="#EF5F54" d="M92.442 15.392a8.82 8.82 0 0 0 0-12.472l-6.234 6.238 6.234 6.234z"/>
        <path fill="#FD9F82" d="M79.97 2.92l6.238 6.238 6.234-6.238a8.82 8.82 0 0 0-12.472 0z"/>
        <path fill="#617DC6" d="M86.208 9.158L79.97 2.92l-6.235 6.238 6.235 6.234z"/>
        <path fill="#1A5F78" d="M73.735 9.158l-6.238 6.234 6.238 6.238 6.235-6.238z"/>
        <path fill="#AF385C" d="M79.966 15.388l6.237-6.237 6.236 6.237-6.236 6.237z"/>
        <path fill="#344560" d="M73.734 21.63l6.237-6.238 6.237 6.237-6.237 6.237z"/>
        <g fill="#FFF">
            <path d="M35.919 46.245v8.692a.979.979 0 0 1-1.073 1.073h-.716a.979.979 0 0 1-1.073-1.073v-7.862c0-4.506-1.013-6.977-3.828-6.977-2.684 0-6.545 2.255-6.545 6.413v8.44a.979.979 0 0 1-1.08 1.066h-.71a.979.979 0 0 1-1.073-1.074v-24.86a1.168 1.168 0 0 1 .857-1.215l.787-.25c.786-.25 1.215.108 1.215.857v11.011c1.688-2.025 4.115-2.7 6.903-2.7 4.51-.014 6.336 3.493 6.336 8.459z"/>
            <path fill-rule="nonzero" d="M13.772 52.905c.824-.466 1.013-.358 1.502.141l.037.038c.537.536.338 1.11-.108 1.502-.965.894-3.686 1.789-6.261 1.789C3.899 56.37 0 52.942 0 47.146c0-5.472 3.47-9.374 8.55-9.374 5.401 0 8.193 4.388 8.193 8.513 0 .929-.142 1.323-1.037 1.323H2.88c.25 4.83 3.005 6.654 6.44 6.654 1.986.003 3.17-.591 4.453-1.357zM2.933 45.64H13.88c-.358-3.255-1.61-5.739-5.188-5.739-3.22.017-5.26 2.056-5.759 5.739zM54.454 38.143h.716a.979.979 0 0 1 1.073 1.074v15.74c0 .675-.223 1.04-.76 1.04-.25 0-.526-.038-.921-.716l-.932-1.61a8.128 8.128 0 0 1-6.224 2.7c-5.114 0-8.692-3.97-8.692-9.3s3.504-9.299 8.658-9.299c2.468 0 4.506.422 6.009 2.282v-.85a.979.979 0 0 1 1.073-1.06zm-.965 8.98c0-5.58-3.22-6.94-5.796-6.94-3.615 0-6.117 2.646-6.117 6.906s2.505 6.903 6.154 6.903c2.61-.014 5.759-1.374 5.759-6.883v.013z"/>
            <path d="M72.017 38.88c.675.573.537 1.073.037 1.539l-.429.395c-.574.536-1.036.357-1.539.037a4.351 4.351 0 0 0-2.363-.675c-2.538 0-4.543 1.897-4.543 5.15l-.058 9.617a.962.962 0 0 1-1.073 1.074h-.716a.979.979 0 0 1-1.073-1.074v-15.74a.979.979 0 0 1 1.073-1.073h.716a.979.979 0 0 1 1.073 1.073v1.182c1.394-1.573 3.254-2.576 5.26-2.576 1.204-.003 2.74.355 3.635 1.07zM101.431 46.214v8.73a.979.979 0 0 1-1.073 1.073h-.716a.979.979 0 0 1-1.073-1.074v-8.36c0-4.186-1.182-6.475-3.757-6.475-2.576 0-5.151 2.147-5.188 6.414v8.438a.979.979 0 0 1-1.074 1.074h-.715a.979.979 0 0 1-1.074-1.074v-8.378c0-4.185-1.181-6.474-3.757-6.474-2.575 0-5.15 2.147-5.188 6.414v8.438a.979.979 0 0 1-1.073 1.074h-.716a.979.979 0 0 1-1.073-1.074V39.203a.979.979 0 0 1 1.073-1.073h.716a.979.979 0 0 1 1.073 1.073v1.35c1.431-1.751 3.004-2.862 5.367-2.862 2.647 0 4.793 1.35 5.739 3.865 1.687-2.575 3.578-3.865 6.224-3.865 4.317.01 6.285 3.517 6.285 8.523z"/>
            <path fill-rule="nonzero" d="M104.59 47.109c0-5.83 4.078-9.3 8.777-9.3 4.699 0 8.776 3.47 8.776 9.3s-4.077 9.3-8.776 9.3-8.776-3.47-8.776-9.3zm14.596 0c0-4.544-2.825-6.977-5.829-6.977-3.004 0-5.867 2.396-5.867 7.01 0 4.615 2.863 6.94 5.83 6.94s5.866-2.322 5.866-6.973z"/>
            <path d="M141.384 46.214v8.73a.979.979 0 0 1-1.073 1.073h-.716a.979.979 0 0 1-1.073-1.074v-8.36c0-3.97-.824-6.475-3.865-6.475-2.792 0-6.367 2.11-6.512 6.724v8.122a.979.979 0 0 1-1.073 1.073h-.716a.979.979 0 0 1-1.073-1.073v-15.75a.979.979 0 0 1 1.073-1.074h.716a.979.979 0 0 1 1.073 1.073v1.462c1.826-2.255 4.115-2.964 6.798-2.964 4.581 0 6.441 3.541 6.441 8.513zM158.45 37.624h.608c.787 0 1.145.5.824 1.252l-10.954 25.259a1.283 1.283 0 0 1-1.252.824h-.608c-.786 0-1.144-.5-.823-1.253l3.942-8.628-6.295-16.202c-.287-.75.07-1.252.857-1.252h.824a1.198 1.198 0 0 1 1.262.857l4.757 13.273 5.606-13.307a1.283 1.283 0 0 1 1.253-.823z"/>
        </g>
    </g>
</svg>
